<svg version="1" xmlns="http://www.w3.org/2000/svg" width="1370.667" height="1370.667" viewBox="0 0 1028.000000 1028.000000"><path d="M437.7 30.6c-.1.1-5.8.4-12.7.8-22.3 1.2-39.9 3.3-61.5 7.6-5.5 1.1-11.4 2.2-13.1 2.5-1.8.3-7.8 1.6-13.5 2.9-5.7 1.4-11.9 2.8-13.8 3.1-1.9.3-3.8.8-4.3 1.1-.5.3-2 .7-3.3 1-6 1.1-46.9 12.4-52 14.4-1.6.6-3.2 1.1-3.5 1.1-.3 0-2.3.5-4.5 1.1-2.2.6-4.2 1.2-4.5 1.3-.5.1-8.9 2.7-10 3-.3.1-1.2.4-2 .8-.8.3-11.8 3.9-24.5 8.1-12.6 4.1-28.2 9.4-34.5 11.7-6.3 2.3-13.7 4.9-16.5 5.7-2.7.9-5.2 1.9-5.5 2.2-.3.3-1.2.7-2 .9-3.6 1-12.8 4.3-15.9 5.7-1.8.9-3.9 1.7-4.5 1.8-.6.1-6.9 2.4-13.9 5.2l-12.9 4.9.7 6.7c.3 3.7.8 8.4 1 10.4.5 3.5 1.1 9.3 2 18.4.2 2.5.7 7.2 1 10.5.3 3.3.8 8.5 1.1 11.5.4 4.3 1.1 6.1 3.2 8.3l2.8 2.8 6.4-1.5c3.6-.8 8.9-2.2 11.8-3 9.3-2.8 15.7-4.7 17.2-5.1.8-.2 1.5-.4 1.5-.5 0-.1.7-.3 1.5-.5s4.4-1 8-1.9c9.4-2.2 13.9-2.9 19-2.9 9.8.1 10.9.3 12 2.4 1.1 2 1.4 3 2.7 9.9 1.3 7 .1 163.3-2.2 275.5-.3 16.5-.8 39.9-1 52-.2 12.1-.7 31.7-1 43.5-.3 11.8-.8 29.8-1 40-.8 29.1-1.9 67.6-3 105-.3 9.1-.7 22.3-1 29.5-.2 7.1-.6 20.4-.9 29.5-.4 9.1-.9 23.7-1.1 32.5-.3 8.8-.8 21.8-1 29-.3 7.1-.7 20-1 28.5-1 28.3-1.5 42.4-2 58l-.6 15.5 10.8 2.9c12.3 3.4 13.4 3.4 65.3 2.1 16.8-.4 31.4-.7 32.6-.6 1.2 0 3.2-1.2 4.5-2.7 2.1-2.3 2.4-3.8 2.5-10.7.2-10 1.3-56 1.9-76 .5-14.7 1.2-42.4 2-74 .2-8.8.6-26.1.9-38.5.7-22.5 1-37.2 2.2-82.5.3-13.2.7-28.5.9-34 .1-5.5.4-18.2.6-28.3.2-10 .4-18.2.6-18.2.1 0 4 1.7 8.5 3.9 9.6 4.4 15.5 5.4 31.8 5.2 19.4-.2 39.9-2.3 56-5.6 1.4-.3 3.4-.7 4.5-.9 5.6-1.1 23.5-5.8 26.8-7.1 2-.8 3.7-1.2 3.7-.9 0 .4.7.1 1.5-.6 1.3-1.1 1.5-.6 1.6 3.1.1 2.4.1 4.8 0 5.3-.1.4-.4 15.5-.7 33.5-.2 17.9-.6 37.3-.9 43.1-.6 18-1.6 38.2-2 45-.3 3.6-.7 10.1-1 14.5-.3 4.4-.7 11.4-1.1 15.5-.3 4.1-.7 10-.9 13-.4 5.2-1.4 15.6-2 21-.1 1.4-.6 6.1-.9 10.5-.4 4.4-.9 9.5-1.2 11.2-.2 1.8-.6 4.8-.8 6.5-.3 1.8-.8 6-1.1 9.3-.4 3.3-.8 6.7-1 7.5-.2.8-.7 4.2-1.1 7.5-.3 3.3-.7 6.7-.9 7.5-.5 2.8-1.6 9.5-2 12.5-.2 1.6-.6 4.1-.9 5.5-.3 1.3-.8 4.2-1.2 6.4-.3 2.2-.7 4.3-.9 4.6-.2.3-.6 2.3-.9 4.5-1.2 7.3-1.7 9.8-2.1 10.5-.2.4-.7 2.2-1 4.1-.3 1.9-1.5 7-2.6 11.4-1.2 4.4-2.2 8.4-2.3 9-1.5 6.4-8.1 26.4-10.5 31.9-1 2.2-3.1 7.2-4.7 10.9l-2.8 6.9 8.7 8.4c4.8 4.6 8.9 8.4 9 8.4.1 0 3.6.6 7.7 1.4 12.5 2.4 20 3.1 30.5 3 8.7-.1 10.7-.4 15-2.6 12-6.2 23.2-23.5 25-38.7.2-2 .6-4.7.9-6.1.4-1.4.9-4.8 1.2-7.5.3-2.8.7-6.1.9-7.5.3-2.5 1.3-12 2-19.5.2-2.2.7-8.3 1-13.5.4-5.2.9-10.6 1.1-12 .2-1.4.6-6.1.9-10.5.2-4.4.7-11.2 1-15 1-14 2.1-30.3 3-45.5.2-4.7 1.6-33.6 2-43 .2-3 .3-9.1.4-13.4.1-4.9.5-7.6 1-7 .8.7 2.6 6.6 4.6 14.4.2.8.4 1.6.5 1.7.2.2.3.6.4 1 .1.5.9 3.3 1.9 6.3.9 3 3.2 10.7 5.1 17 1.9 6.3 4.6 15.4 6.1 20.2 1.4 4.8 2.8 9.5 3 10.5.2 1 1 3.8 1.8 6.3 1.6 4.7 2.5 7.9 16.2 55 8.4 28.6 11.3 38.9 12 42 .2.8.4 1.5.5 1.5.1 0 .3.7.5 1.5s2 7.1 4 14 4.3 15 5.1 18c.8 3 2.2 8 3.1 11 .9 3 1.8 5.9 1.9 6.5.8 3 1.4 5.7 1.9 7.5.2 1.2.8 3.5 1.4 5.3 1.9 6.2 4.1 14.2 4.7 17.4.8 4.2 1.9 5 7.9 5.7 2.8.4 5.7.9 6.5 1.1.8.2 3.3.7 5.5 1 6.4 1.1 7.9 1.4 10.5 2 1.4.3 4.8.8 7.6 1.1 5 .6 5.1.6 6.7-2.7 3.7-7.8 5.5-12.8 5-13.3-.4-.3-.2-.6.4-.6.6 0 1.4-1.2 1.8-2.8.3-1.5 1.3-4.1 2-5.7.8-1.7 4.6-11.1 8.6-21 3.9-9.9 8.2-20.4 9.5-23.3 1.3-2.9 2.4-5.6 2.4-6.1 0-.4 1.5-4.3 3.4-8.7 1.8-4.3 8.1-19.6 13.9-33.9 5.8-14.3 11.4-27.8 12.3-30 1-2.2 1.9-4.5 2-5 .1-.6 2.8-7.1 5.9-14.5 3.1-7.4 7-16.9 8.7-21 1.6-4.1 5.9-14.5 9.4-23 3.6-8.5 7.9-18.9 9.6-23 3.1-7.7 5-12.2 7.3-17.5.8-1.7 2.8-6.5 4.5-10.7 1.8-4.3 3.5-8 3.8-8.2.4-.2.6 1.9.5 4.7-.6 17.5-1.5 101.2-1.5 142.5-.1 49.2.1 54.2 2.7 74.7 2.6 21.4 11.3 41.8 22.7 53.7 7 7.4 20.4 15.7 27.8 17.4 1.1.2 2.9.6 4 .9 5.1 1.3 6.9 1.6 12 2.2 7.9.8 27.4.8 35-.1 10.7-1.3 13.8-1.8 24.5-4 4.9-1.1 22.8-5.9 30.5-8.3 4.7-1.5 9-2.7 9.5-2.9.6-.1 4.6-1.3 9-2.8 4.4-1.4 8.5-2.6 9.2-2.6 2.3 0 1.4-5.4-2.8-18.1-2.2-6.8-4.2-12.9-4.3-13.4-.2-.6-.6-1.7-.9-2.5-.3-.8-2-6-3.6-11.5-1.7-5.5-3.5-10.7-4-11.6-.5-.9-1.3-3.3-1.6-5.2-1.1-5.7-2.1-6-11.6-3.6-4.6 1.2-9.5 2.3-10.9 2.5-1.4.3-4.1.9-6 1.4-7.1 1.9-11.7 2.4-20.7 2.3-10.2 0-13.2-1.2-15.7-6.1-1.8-3.5-4.6-14.8-5.4-22.2-1.5-13.4-.5-176.5 1.3-214 .2-4.7.7-15.7 1.1-24.5.3-8.8.7-18.5.9-21.5.2-3 .6-10.7.9-17 1.5-26.8 2.7-45 3.2-50 .2-2.5.6-8.1.9-12.5.5-7.7 1-14.6 2-26.5.6-6.3 1.5-17.6 1.9-23.5.2-2.2.7-8.1 1.1-13 .9-9.4 1-14.4.4-14.9-2.6-1.7-28-11.3-32.4-12.2-16.6-3.3-34.3-1.7-45 4.1-13.3 7.2-19.1 14.4-27.6 34-4.4 10.4-10.9 26.7-10.9 27.5 0 .5-.5 1-1.2 1-.6 0-.9.3-.5.6.6.6-4.8 14-6.5 16.2-.6.6-.8 1.2-.5 1.2.5 0-2.8 8.7-6.3 16.5-1.9 4.3-7 16.4-10 24-1.8 4.4-3.8 9.3-4.5 11-.8 1.6-2.9 6.8-4.8 11.5-3.1 7.5-19.2 46.4-22 53-.5 1.4-1.1 3-1.3 3.7-.1.7-1.4 3.7-2.8 6.7s-2.6 6.2-2.6 7c0 .9-.4 1.6-1 1.6-.5 0-1 .7-1 1.5 0 1.3-3.2 9.3-9.5 24-.7 1.6-2.5 6.4-4.1 10.5-1.6 4.1-3.1 7.7-3.5 8-.3.3-1.2 2.3-1.9 4.5s-2.1 5.8-3 8c-2.8 6.3-8.4 19.9-13.6 33.2-2.7 6.8-5.2 12.3-5.6 12.3-.6 0-2.1-4.3-3.3-9.5-.1-.6-.7-2.3-1.3-3.8-.7-1.6-1.2-3.3-1.2-4 0-.6-.6-2.9-1.4-5.2-1.3-3.4-6.5-20.2-13.6-43-11.2-36.5-14.2-46.2-14.7-47.5-.3-.8-.7-2-.8-2.5-.4-1.9-8.6-28-9.4-30-.5-1.1-1.3-3.6-1.9-5.5-4.7-15.7-8.5-27.9-9.4-30.2-.5-1.5-1-3-.9-3.2 0-.3-.7-2.5-1.5-4.8-.9-2.4-1.7-5-1.9-5.8-.2-.8-1.5-5.3-3-10s-2.8-9-3-9.5c-.1-.6-.7-2.3-1.3-3.8-.7-1.6-1.2-3.1-1.2-3.4 0-.8-6.6-22.1-13.7-44.1l-5.6-17.3 9.4-9.2c8.1-7.9 16.4-16.9 25.6-28 3.1-3.7 18.6-26.5 20.9-30.7 1-1.9 2.2-3.7 2.5-4 .3-.3 1.6-2.5 2.8-5 1.2-2.5 3.7-7.2 5.5-10.5 1.7-3.3 3.3-6.3 3.4-6.7.2-.8 3.2-7.5 7.7-17.3 1.2-2.8 2.6-6.1 2.9-7.5.4-1.4 1.1-3.4 1.6-4.5 2-4.8 9.3-27.8 10.6-33.6.2-1.1.6-2.7.8-3.7 1.8-7.1 3.6-15.2 4-17.7.3-1.7.8-4.1 1.1-5.5.3-1.4.8-4.5 1.1-7 .3-2.5.7-5.2 1-6.1.4-1.6 1.3-8.6 1.8-15.9.2-1.9.6-6.2 1-9.5.8-7.4 1.8-28.3 1.7-35.5-.1-1.9 0-4.2 0-5 .2-2.6-1.1-29.7-1.5-33.2-.3-1.8-.8-5.6-1.1-8.3-.4-2.8-.9-6.1-1-7.5-1.6-11.7-7.5-35.7-10.5-42.5-.4-1.1-1.7-4-2.7-6.5-8.5-21.2-24.8-45.8-40.3-61.1-10-9.8-29.1-23.9-32.5-23.9-.7 0-1.5-.4-1.7-.8-.9-2.4-32.9-14.9-42.2-16.6-1.5-.3-3.4-.7-4.4-1-.9-.3-3.1-.8-4.7-1-1.7-.2-6.1-.9-10-1.5-11.6-1.7-21.2-2.3-37.8-2.5-8.7-.1-15.9-.1-16 0zM411 125.4c18.8 3.2 24.8 5.1 36.5 11.3 12.3 6.5 24.3 17.5 30.1 27.5 7.6 13.1 13.9 28.1 17 40.3.2.5.6 2.1.9 3.5.9 3.4 1.4 6.5 3.9 22 2.8 17.1 2.8 69.6.1 91.5-1.7 13.6-4.2 27-7 38-1.8 7-7.6 24.8-8.4 26-.4.5-1.6 3.2-2.6 5.9-2.2 6.1-10.5 22.1-15.2 29.6-7.1 11-18.6 23.7-30.3 33.4-7.3 6-18.3 13.6-19.7 13.6-.3 0-1.4.6-2.2 1.3-1.9 1.6-18.8 9.3-22.6 10.3-.5.1-3.8 1.1-7.1 2.2-6 2-21.4 5.5-28.4 6.6-12.1 1.7-33.5 3.1-43.1 2.7-1.4-.1-1.6-1.6-1.3-12.9.2-7 .4-14.3.4-16.2-.1-1.9-.1-4.2-.1-5 0-.8.2-7.6.5-15s.7-24.4 1-37.8c.4-13.3.9-32.9 1.1-43.5.3-10.6.8-28.2 1-39.2 1.1-46.7 1.5-66.2 2-85.5.9-38 1.6-70.4 1.9-85.3.2-8.2.7-15.2 1.2-15.7 1.9-1.7 32-8 47.6-9.9 6.3-.7 38.1-.6 42.8.3z"/></svg>